<?xml version="1.0" encoding="utf-8"?>
<!-- Generator: Adobe Illustrator 24.1.3, SVG Export Plug-In . SVG Version: 6.00 Build 0)  -->
<svg version="1.1" id="Capa_1" xmlns="http://www.w3.org/2000/svg" xmlns:xlink="http://www.w3.org/1999/xlink" x="0px" y="0px"
	 viewBox="0 0 1080 697.2" style="enable-background:new 0 0 1080 697.2;" xml:space="preserve">
<style type="text/css">
	.st0{fill:#FFFFFF;}
	.st1{fill:none;stroke:#000000;stroke-width:2.6772;stroke-miterlimit:10;}
	.st2{fill:none;stroke:#000000;stroke-width:1.3386;stroke-miterlimit:10;}
</style>
<g>
	<path d="M1065.4,57.1c-2.3-1.9-5.2-2.9-8.2-2.9c-2.9,0-5.7,1-8,2.7c-14.4,11.1-28.3,18.6-48.8,18.6c-21.4,0-50.8-7.6-98.1-25.5
		C804.5,13.1,751.4,0,699.5,0c-60.3,0-102.5,11.4-137,37c-2.9,2.1-4.7,5.4-5.2,8.9c0,0.1,0,0.3,0,0.4c0,0,0,0,0,0.1l0,0L555,79.8
		l-15,15l-15-15l-2.3-33c0-0.2,0-0.3-0.1-0.5c-0.3-3.7-2.2-7.1-5.2-9.4C483,11.4,440.8,0,380.5,0c-51.9,0-105,13.1-202.7,50
		c-47.4,17.9-76.7,25.5-98.1,25.5c-20.5,0-34.4-7.4-48.8-18.6c-2.3-1.8-5.1-2.7-8-2.7c-3,0-5.9,1-8.2,2.9
		c-4.7,3.8-6.2,10.3-3.6,15.8c9.5,19.9,24.3,34.8,43.8,44.2c0.1,0.1,0.3,0.2,0.4,0.2l99.1,65.5l-1,10.2l-7.9,7
		c-2.8,2.5-4.4,6-4.4,9.8c0,3.7,1.6,7.3,4.4,9.8l4.9,4.4l-43.6,458.8c-0.6,6.4,3.5,12.3,9.8,13.9c1.1,0.3,2.2,0.4,3.3,0.4
		c2.6,0,5-0.8,7.2-2.3c0.3-0.1,0.6-0.3,0.8-0.5l90.4-44.9c0.1-0.1,0.3-0.2,0.4-0.4c1.3-1.1,2.4-2.5,3-4c0.2-0.4,17.3-39.3,49.3-87.2
		c1-1.5,1.7-3.3,1.8-5.2l3.4-38.2l42.7-20.7c1.3-0.6,2.6-1.5,3.6-2.7c18.6-20.8,38-39,57.8-54.3c0.2-0.2,0.4-0.4,0.6-0.5v26.3
		c-0.7,1.5-1.5,2.9-2.2,4.4c-2.5,5-1.6,11,2.2,15.1v41.7c-0.3,0.8-0.8,1.8-1.3,2.8c-0.7,1.3-1.4,2.8-2.3,4.3
		c-0.8,1.3-1.5,2.5-2.3,3.6c-3.8,5.3-3.2,12.7,1.5,17.3c0.8,0.8,1.8,1.5,2.7,2l-0.1,0l34.9,20.6l0,0c1.6,0.9,3.4,1.4,5.2,1.4
		c2.2,0,4.3-0.7,6.2-2c6.1-4.4,12.4-8.5,19-12.2c13.8-7.3,26.7-13.5,42.9-18c0.6-0.1,1.1-0.1,1.7-0.3c16.6-4.5,33.8-6.8,51-6.8
		c7.8,0,15.6,0.5,23.3,1.4c1.8,0.2,4.3,0.6,6.2,0.8c8.6,1.3,17.1,3.2,25.4,5.6c0.2,0.1,0.4,0.1,0.6,0.1c9.6,2.7,20.7,7,32.1,12.8
		c1.5,0.7,2.9,1.5,4.4,2.3c0.7,0.4,1.4,0.7,2.1,1.1c7.1,3.9,14,8.3,20.6,13c1.8,1.3,4,2,6.2,2c1.7,0,3.4-0.5,5-1.3c0,0,0,0,0,0
		l35.5-20.9c0,0,0,0,0,0c0.8-0.5,1.6-1.1,2.3-1.8c4.7-4.6,5.3-11.9,1.5-17.3c-0.9-1.3-1.9-2.7-2.9-4.3l-0.5-0.7
		c-0.9-1.5-1.9-2.9-2.7-4.2c-0.9-1.4-1.7-2.7-2.5-4.1c-0.4-0.6-0.5-1-0.6-1.1c-0.1-0.2-0.1-0.3-0.2-0.5
		c-7.5-18.4-15.3-36.8-23.4-54.9l21.7-30.1c1.3,0.7,8.4,4.6,13.4,8.5c3.4,2.8,6.7,5.7,9.8,8.3l0.5,0.4l0.2,0.2c1,0.9,2,1.7,3,2.6
		c3.7,3.3,7,6.3,10,9.2c0.5,0.5,1.1,1,1.6,1.5l1.2,1.2c2.6,2.6,5,4.9,7.3,7.3c1.3,1.3,2.6,2.6,3.9,4c2.2,2.3,4.5,4.7,6.8,7.2
		c37.3,40.2,65.2,83.6,82.1,113c3.4,5.9,6.7,11.9,9.8,17.7l0.3,0.5c0.9,1.6,1.7,3.2,2.5,4.8l0.3,0.6c0.8,1.5,1.6,3,2.4,4.6
		c0.7,1.4,1.4,2.7,2,4l5.9,12.3l0.7,1.6l0.2,0.4l0.3,0.6l0.2,0.3c0.6,1.3,1.5,2.5,2.6,3.6c0.2,0.2,0.3,0.4,0.5,0.5l90.5,45
		c0.3,0.2,0.5,0.4,0.9,0.5c2.2,1.6,4.7,2.4,7.4,2.4c1.1,0,2.3-0.1,3.4-0.4c6.2-1.6,10.3-7.5,9.7-13.9l-43.6-458.8l4.9-4.4
		c2.8-2.5,4.4-6,4.4-9.8c0-3.7-1.6-7.3-4.4-9.8l-7.9-7l-1-10.2l100.5-66.2c0.2-0.1,0.4-0.2,0.6-0.4c18.5-9.4,33.1-24.4,42.2-43.4
		C1071.6,67.4,1070.1,60.9,1065.4,57.1z"/>
	<g>
		<path class="st0" d="M897.6,62.2c-95.2-36-147.4-49.1-198.1-49.1c-50.7,0-93.7,8.1-129.2,34.4c69.9-11.1,126.1-4.6,194,13.7
			c17.5,4.7,32.6,9.6,46.7,14.5h-18.4h-8.1h-10.9l-28.9,24.5l5.4,99.1l-12,10.7l13.2,11.8l10.8,197.7c4.6,3.8,9.1,7.6,13.6,11.5
			c1.6,1.4,3.3,2.8,4.9,4.3c4.4,3.9,8.8,7.9,13.1,12c1.2,1.2,2.5,2.4,3.7,3.6c3.2,3.1,6.4,6.3,9.6,9.5c1.7,1.7,3.4,3.5,5.1,5.2
			c3,3.1,6,6.3,8.9,9.4c47.4,51.1,83.3,106.1,106.8,146.9c0,0.1,0.1,0.1,0.1,0.2c4.8,8.3,9.1,16.1,12.8,23.1
			c0.1,0.2,0.2,0.4,0.3,0.6c1.1,2.2,2.2,4.2,3.3,6.2c0.1,0.3,0.3,0.5,0.4,0.8c1,2,2,3.9,3,5.7c0.1,0.1,0.1,0.2,0.2,0.3
			c0.9,1.8,1.8,3.5,2.6,5.1c0.1,0.1,0.2,0.3,0.2,0.5c0.8,1.6,1.5,3.1,2.2,4.5c0.1,0.3,0.3,0.5,0.4,0.8c0.6,1.3,1.3,2.6,1.8,3.7
			c0.1,0.2,0.2,0.5,0.3,0.7c0.5,1.1,1,2.2,1.5,3.1c0.1,0.1,0.1,0.3,0.2,0.4c0.4,0.9,0.8,1.7,1.1,2.4c0,0.1,0.1,0.2,0.2,0.3
			c0.3,0.7,0.6,1.3,0.8,1.9c0.1,0.1,0.1,0.2,0.2,0.3c0.2,0.4,0.4,0.8,0.5,1.1c0,0.1,0.1,0.2,0.1,0.3c0,0.1,0.1,0.2,0.1,0.2
			l-44.2-465.4l9.9-8.8L914,199.5l-7.4-77.6l-28.9-22.9c16.7,5.2,34.8,9.8,56.3,13.4c68.4,11.7,105.9-9.1,123.1-45.1
			C1021.7,94.6,992.8,98.2,897.6,62.2z M856.3,126.1l4.9,55.5v0l26.2,294.9c-19.3-24.4-42.6-50.6-69.6-77.3l-21.3-273H856.3z"/>
		<polygon class="st0" points="279.6,109.7 278.4,126.1 329.5,126.1 332.6,75.7 282.2,75.7 		"/>
		<path class="st0" d="M524.9,203.3l0.7-104.5l-23.1-23.1h-5.9h-21.3h-57.6h-28.3l-23.1,23.1l-4.5,104l-11.5,7.6l10.8,7.2l0,0
			l-2.5,57.4l-5.1,118.1c22.4-14.9,46.3-27.8,71.6-37.9l-14-14l1.5-60.3l1.2-47.7H471l-0.9,32.6l-1.5,55.6l-15.9,24.2
			c22.8-6.8,46.6-11.1,71.4-12.4l0.2-51.3l0.4-64.4l10.8-7.1L524.9,203.3z M472.3,186.2H415l1.5-60.1h57.4L472.3,186.2z"/>
		<path class="st0" d="M334.7,210.3l-9.9-6.6l3.5-57h-51.4l-4.2,55.7l-11.9,7.9l10.8,7.1l-20.2,265.8c22.5-25.2,47.9-49.6,75.8-71.3
			l-14.2-14.2l11-180.4L334.7,210.3z"/>
		<path class="st0" d="M218.8,181.5l0.6-7l6.2-69.4h0l1.3-14.4c26.8-9.4,53-19.9,88.8-29.5c67.9-18.2,124.1-24.8,194-13.7
			c-35.5-26.3-78.5-34.4-129.2-34.4S277.7,26.3,182.4,62.2c-95.2,36-124.1,32.4-159.6,5.1c17.2,36,54.7,56.7,123.1,45.1
			c10.4-1.8,19.8-3.8,28.8-5.9l-4.1,41.7l0.1-0.1l-4.9,51.4l-11.7,10.4l9.9,8.8l-44.2,465.4c0,0,22.2-50.8,64.3-113.8l31-347.8
			l14.1-12.6l-12-10.7L218.8,181.5z"/>
		<path class="st0" d="M726.3,391.7l-5-116.8l-2.4-56.1v0l-0.4-8.4h-52.9h-33.8l34.7,34.7l0.6,23.9v0l0.3,11.9l0.7,29.4
			c-17.9-8-36.6-14.5-56.1-19.2c-0.5-0.1-0.9-0.2-1.4-0.3l-0.7-25l-0.9-32.6l-1.3-46.9l-1.6-60.1h57.4l1.5,60.1h52.5v0l-3.8-87.4
			l-23.1-23.1h-9.6h-18.6h-56.2h-1.4h-21.3h-5.9l-23.1,23.1l0.7,104.5l-10.7,7.1l10.8,7.1l0.4,64.4l0.1,31.8l21.4,21.4
			c5.9,0.7,11.8,1.7,17.6,2.7c0.1,0,0.1,0,0.2,0c5.7,1.1,11.4,2.2,17,3.6c0,0,0,0,0,0v0c0,0,0,0,0.1,0c4.6,1.1,9.1,2.4,13.6,3.7
			c1.1,0.3,2.2,0.7,3.3,1c3.7,1.1,7.4,2.3,11,3.5c0.8,0.3,1.6,0.6,2.5,0.8c14.2,5,27.9,10.9,41.2,17.5c0.2,0.1,0.5,0.2,0.7,0.3
			c0.1,0.1,0.2,0.1,0.3,0.2c9.3,4.7,18.4,9.8,27.3,15.2c0.5,0.3,1,0.6,1.5,0.9c4.3,2.7,8.6,5.4,12.9,8.2l0,0c0,0,0,0,0,0
			C726.4,392.9,726.4,392.4,726.3,391.7z"/>
	</g>
	<g>
		<path class="st0" d="M456.2,398.2c-15.3,5.2-30.2,11.8-44.6,19.8c0,32.2,0,64.4,0,96.6c0,0.5,0.2,1.1,0.7,1.7
			c0.5,0.7,1,1.3,1.7,1.9c0.7,0.6,1.5,1.2,2.4,1.8c0.9,0.6,1.9,1,2.9,1.4c-11.6,6-22.8,12.9-33.5,20.7c1-1.5,2-3,3-4.7
			c1-1.7,1.8-3.3,2.6-5c0.8-1.6,1.4-3.1,1.9-4.4c0.5-1.3,0.7-2.2,0.7-2.9c0-16.5,0-33,0-49.4c-1.2-1-2.4-1.9-3.6-2.9
			c1.2-2.4,2.4-4.8,3.6-7.2c0-14.5,0-28.9,0-43.4c0-1.3-0.9-2.5-2.6-3.5c-1.7-1-3.6-1.5-5.6-1.5c23.8-17.3,49.8-30.1,76.8-38.4
			c1-0.3,2.2-0.5,3.6-0.5c1.4,0,2.8,0,4.2,0.3c1.4,0.2,2.7,0.6,4,1.1c1.2,0.5,2.3,1,3.1,1.7c0.8,0.6,1.6,1.4,2.3,2.5
			c0.7,1,1.4,2.2,2,3.3c0.6,1.2,1.1,2.4,1.5,3.5c0.4,1.2,0.6,2.3,0.6,3.3c0,8.2,0,16.3,0,24.5c0,1.7-0.1,3.6-0.2,5.5
			c-0.2,2-0.4,3.8-0.6,5.6c-0.2,1.8-0.6,3.4-0.9,4.8c-0.4,1.4-0.7,2.4-1,3.1c-0.6,1.2-1.7,2.4-3.2,3.7c-1.6,1.3-3.4,2.7-5.4,4
			c-2,1.3-4.2,2.5-6.6,3.7c-2.3,1.1-4.6,2.1-6.8,2.8c-9.7,3.1-19.2,6.8-28.5,11.1c-1,0.5-2.2,1.2-3.4,2.1c-1.2,0.9-2.5,2-3.7,3.2
			c-1.2,1.2-2.3,2.5-3.3,3.7c-1,1.3-1.8,2.5-2.3,3.6c0-10.2,0-20.5,0-30.7c0.9,0.4,2.1,0.7,3.4,0.8c1.3,0.1,2.6,0.3,3.9,0.4
			c1.3,0.1,2.5,0.1,3.6-0.1c1.1-0.1,2.1-0.4,2.9-0.7c7.8-3.5,15.8-6.7,23.8-9.4c1.7-0.6,3.4-1.5,5.1-2.9c1.7-1.4,2.8-2.6,3.3-3.8
			c0.2-0.6,0.4-1.8,0.7-3.7c0.2-1.9,0.4-3.7,0.4-5.4c0-5.3,0-10.7,0-16c0-0.8-0.3-1.8-0.8-3c-0.5-1.2-1.2-2-1.9-2.5
			c-0.7-0.4-1.7-0.7-3-0.8C458.4,397.7,457.2,397.8,456.2,398.2z"/>
		<path class="st0" d="M484,392.6c2.8-6.9,5.5-13.8,8.3-20.7c29.6-5.5,59.8-5.8,89.5-1c-12.6,15.9-25.4,32.8-38.2,50.5
			c0.8,2,1.5,4.1,2.3,6.1c-3.1,1.2-6.3,2.4-9.4,3.8c-10.4,14.8-20.8,30.3-31.2,46.4c19.7-2.6,39.7-3,59.4-1.1c0.8,0.1,2,0,3.5-0.2
			c1.5-0.2,3.2-0.6,5-1.1c1.8-0.5,3.6-1,5.4-1.7c1.8-0.6,3.5-1.3,5-1.9c-3.9,7.4-7.8,14.9-11.7,22.5c-33.6-4.1-67.8-1.8-100.7,7.2
			c14.2-24.1,28.6-46.9,43.1-68.6c-0.3-1.8-0.6-3.7-0.9-5.5c2.6-1.7,5.2-3.3,7.8-4.9c9.1-13.2,18.2-26,27.4-38.2
			c-16.8-0.6-33.7,0.5-50.3,3.2C493.6,388.8,488.8,390.6,484,392.6z"/>
		<path class="st0" d="M644.4,435.9c1.6,3.3,3.2,6.7,4.7,10c2,2.3,4.1,4.6,6.1,7c-0.6,0.8-1.2,1.6-1.8,2.5
			c10.2,22.3,20.1,45.4,29.7,69.1c0.3,0.8,0.8,1.9,1.6,3.3c0.8,1.4,1.7,2.9,2.7,4.5c1,1.6,2.1,3.3,3.2,5.1c1.1,1.8,2.2,3.4,3.3,4.9
			c-12.2-8.8-24.9-16.5-38-23c1.4-0.6,2.7-1.5,3.9-2.8c1.2-1.2,1.8-2.3,1.8-3.2c-0.1-0.7-0.3-1.4-0.4-2c-9.9-23-20.1-45.4-30.4-67
			c-8.1,5.9-16.4,12.3-24.8,19c0,9.2,0,18.4,0,27.5c0,1.1,0.8,2.9,2.4,5.4c1.6,2.5,3.4,4.7,5.4,6.6c-11.5-3.4-23.2-6-35-7.7
			c0.9-0.5,1.8-1.1,2.7-1.9c0.9-0.8,1.7-1.5,2.4-2.3c0.7-0.8,1.3-1.6,1.7-2.3c0.4-0.7,0.6-1.4,0.6-2c0-16.9,0-33.9,0-50.8
			c-1.4-2-2.8-4-4.3-6.1c1.4-1.3,2.8-2.7,4.3-4c0-14.6,0-29.2,0-43.8c0-0.6-0.2-1.4-0.6-2.3c-0.4-0.9-0.9-1.9-1.6-3
			c-0.7-1.1-1.4-2.1-2.3-3.2c-0.9-1.1-1.7-2-2.7-2.9c11.7,1.8,23.3,4.3,34.7,7.7c-1,0.4-1.9,1-2.8,1.6c-0.9,0.7-1.7,1.3-2.5,2.1
			c-0.8,0.7-1.3,1.4-1.8,2.1c-0.4,0.7-0.7,1.3-0.7,2c0,18.3,0,36.5,0,54.8c16.6-13.5,33-25.3,48.7-35.4c0.2-0.1,0.4-0.4,0.6-0.8
			c0.2-0.4,0.3-0.9,0.4-1.3c0-1-0.7-2.8-2.2-5.3c-1.5-2.5-3.2-4.8-5.1-6.9c14.7,6.7,29,14.8,42.5,24.4c-1.6-0.2-3.2-0.3-4.8-0.4
			c-0.7,0-1.5,0.1-2.4,0.2c-0.9,0.1-1.8,0.2-2.7,0.4c-0.9,0.2-1.8,0.4-2.6,0.7c-0.8,0.3-1.5,0.5-2,0.8
			C666.2,422.5,655.4,428.8,644.4,435.9z"/>
	</g>
	<g>
		<path class="st1" d="M22.9,67.3c31.5,37.8,79.6,46.4,142.1,22.5C258.8,54,388.1-1.8,509.7,47.5"/>
		<path class="st1" d="M1057.1,67.3c-31.5,37.8-79.6,46.4-142.1,22.5C821.2,54,691.9-1.8,570.3,47.5"/>
		<polyline class="st1" points="204.2,74.6 160.7,538.1 119.9,684.1 		"/>
		<line class="st1" x1="188.1" y1="575.7" x2="160.7" y2="538.1"/>
		<polyline class="st1" points="251.3,483.3 285.6,399.2 300.2,168.6 276.8,146.8 		"/>
		<line class="st1" x1="341.6" y1="416.6" x2="285.6" y2="399.2"/>
		<line class="st1" x1="328.2" y1="146.8" x2="300.2" y2="168.6"/>
		<polyline class="st1" points="329.5,126.1 304.4,100.9 278.4,126.1 		"/>
		<polyline class="st1" points="282.2,75.7 304.4,100.9 332.2,75.7 		"/>
		<polyline class="st1" points="524.1,333.2 495.6,306.5 495.6,306.5 500.4,111.1 488.1,97.6 403.5,97.6 391.3,113.5 381.1,342 
			353.6,392.9 		"/>
		<line class="st1" x1="425.2" y1="355.1" x2="381.1" y2="342"/>
		<line class="st1" x1="452.7" y1="345.6" x2="495.6" y2="306.5"/>
		<line class="st1" x1="498" y1="207.9" x2="387.1" y2="207.9"/>
		<polyline class="st2" points="430.7,133.2 391.3,113.5 366.3,98.8 		"/>
		<polyline class="st2" points="416.5,126.1 403.5,97.6 389.4,75.7 		"/>
		<polyline class="st2" points="468.5,136.9 488.1,97.6 502.4,75.7 		"/>
		<polyline class="st2" points="461.2,133.3 500.4,111.1 525.5,98.8 		"/>
		<polyline class="st2" points="420.2,182.1 387.1,208.3 420,238.7 		"/>
		<polyline class="st2" points="466,180.7 498,207.9 464.4,239.3 		"/>
		<path class="st1" d="M665,186.2l25.4-24.3l-1.9-51.8l-10.9-13.6l-86-0.7l-11,12.5l2.1,187.6l17,17c25.9,3.1,70.1,15.6,97.1,33.2
			l-5-111.8l-60-24"/>
		<line class="st1" x1="717.5" y1="186.2" x2="690.4" y2="161.9"/>
		<polyline class="st2" points="719.7,96.1 688.5,110.1 663.5,126.1 677.5,96.5 692.9,71.9 		"/>
		<polyline class="st2" points="575.1,72.1 591.6,95.8 606.1,126.1 580.6,108.3 551.9,97.9 		"/>
		<polyline class="st2" points="554.2,314.7 582.7,295.9 610.6,290.7 599.7,312.9 575.1,337.1 		"/>
		<line class="st1" x1="691.7" y1="234.3" x2="718.5" y2="210.3"/>
		<line class="st2" x1="661.4" y1="247.1" x2="691.7" y2="234.3"/>
		<line class="st2" x1="663.2" y1="304.2" x2="696.7" y2="346.1"/>
		<line class="st1" x1="726.4" y1="392.9" x2="696.7" y2="346.1"/>
		<path class="st1" d="M769.1,110l15.9-13.4l67.9,1l30.8,29.5c0,0,25.8,280.4,36.5,426.4c-40.8-59.6-81.7-105.8-133.2-148.6
			C782,305.8,776.7,198.3,769.1,110z"/>
		<line class="st1" x1="762.2" y1="419.4" x2="787.1" y2="404.8"/>
		<line class="st1" x1="960.9" y1="685.9" x2="920.3" y2="553.4"/>
		<polyline class="st2" points="739.9,98.2 769.1,110 796.5,126.1 785.1,96.6 770.9,70.6 		"/>
		<line class="st2" x1="824.1" y1="397.9" x2="787.1" y2="404.8"/>
		<line class="st2" x1="882.4" y1="464.6" x2="920.3" y2="553.4"/>
		<polyline class="st2" points="853,97.6 856.3,126.1 883.8,127.1 		"/>
		<line class="st1" x1="906.7" y1="121.9" x2="883.8" y2="127.1"/>
		<line class="st1" x1="856.3" y1="90" x2="853" y2="97.6"/>
	</g>
</g>
</svg>
